<svg width="16" height="24" viewBox="0 0 16 24" fill="none" xmlns="http://www.w3.org/2000/svg">
<path fill-rule="evenodd" clip-rule="evenodd" d="M15.4184 10.8619C15.4184 10.7194 15.342 10.587 15.2196 10.5159L8.67676 6.7168V14.3435C8.67676 14.4715 8.74546 14.591 8.85613 14.6552L15.4184 18.445V10.8619Z" fill="#1A2E44"/>
<path fill-rule="evenodd" clip-rule="evenodd" d="M7.73344 16.2783C7.67092 16.2783 7.60951 16.295 7.55561 16.3263L6.75043 16.7691L0.93457 20.1281L7.51033 23.9468C7.57019 23.9814 7.63867 23.9999 7.7087 23.9999C7.77894 23.9999 7.84786 23.9814 7.90795 23.9465L14.4899 20.1243L7.90618 16.3228C7.85515 16.2937 7.7944 16.2783 7.73344 16.2783Z" fill="#1A2E44"/>
<path fill-rule="evenodd" clip-rule="evenodd" d="M0 18.4526L6.57443 14.6559C6.68577 14.5917 6.7633 14.4568 6.7633 14.328L6.76662 0L0 3.82156V18.4526Z" fill="#1A2E44"/>
</svg>
