<svg width="1440" height="487" viewBox="0 0 1440 487" fill="none" xmlns="http://www.w3.org/2000/svg">
<path opacity="0.5" fill-rule="evenodd" clip-rule="evenodd" d="M214.318 345.526C214.318 343.772 213.387 342.141 211.896 341.266L132.213 294.475L132.213 388.407C132.213 389.983 133.05 391.455 134.397 392.246L214.318 438.922L214.318 345.526Z" fill="white"/>
<path opacity="0.11" fill-rule="evenodd" clip-rule="evenodd" d="M956.692 257.407C956.692 255.815 955.841 254.334 954.478 253.54L881.625 211.072V296.325C881.625 297.755 882.39 299.092 883.622 299.809L956.692 342.172V257.407Z" fill="#B0ABAC"/>
<path opacity="0.2" fill-rule="evenodd" clip-rule="evenodd" d="M648.513 404.481C648.513 402.727 647.582 401.096 646.092 400.221L566.408 353.43V447.362C566.408 448.938 567.245 450.411 568.593 451.201L648.513 497.878V404.481Z" fill="#B0ABAC"/>
<path opacity="0.14" fill-rule="evenodd" clip-rule="evenodd" d="M455.702 341.415C454.94 341.415 454.193 341.62 453.536 342.006L443.73 347.46L372.9 388.83L452.985 435.862C453.714 436.289 454.548 436.516 455.401 436.516C456.256 436.516 457.095 436.289 457.827 435.859L537.987 388.783L457.806 341.962C457.184 341.604 456.444 341.415 455.702 341.415Z" fill="#B0ABAC"/>
<path opacity="0.14" fill-rule="evenodd" clip-rule="evenodd" d="M261.504 602.931L341.572 556.17C342.928 555.38 343.872 553.719 343.872 552.131L343.913 375.664L261.504 422.732L261.504 602.931Z" fill="#B0ABAC"/>
<path opacity="0.5" fill-rule="evenodd" clip-rule="evenodd" d="M1031.76 299.374L1111.83 252.613C1113.18 251.822 1114.13 250.161 1114.13 248.574L1114.17 72.1064L1031.76 119.174V299.374Z" fill="white"/>
<path opacity="0.15" fill-rule="evenodd" clip-rule="evenodd" d="M1077.83 345.526C1077.83 343.772 1076.9 342.141 1075.41 341.266L995.729 294.475V388.407C995.729 389.983 996.565 391.455 997.913 392.246L1077.83 438.922V345.526Z" fill="#B0ABAC"/>
<path opacity="0.2" fill-rule="evenodd" clip-rule="evenodd" d="M934.616 378.492C933.855 378.492 933.107 378.697 932.45 379.083L922.644 384.537L851.814 425.907L931.899 472.939C932.628 473.366 933.462 473.593 934.315 473.593C935.17 473.593 936.009 473.366 936.741 472.936L1016.9 425.861L936.72 379.039C936.098 378.681 935.358 378.492 934.616 378.492Z" fill="#B0ABAC"/>
<path opacity="0.2" fill-rule="evenodd" clip-rule="evenodd" d="M1319.22 341.415C1318.46 341.415 1317.71 341.62 1317.05 342.006L1307.25 347.46L1236.42 388.83L1316.5 435.862C1317.23 436.289 1318.07 436.516 1318.92 436.516C1319.77 436.516 1320.61 436.289 1321.34 435.859L1401.5 388.783L1321.32 341.962C1320.7 341.604 1319.96 341.415 1319.22 341.415Z" fill="#B0ABAC"/>
<path opacity="0.2" fill-rule="evenodd" clip-rule="evenodd" d="M68.8015 375.415C68.0401 375.415 67.2922 375.62 66.6358 376.006L56.8297 381.46L-14 422.83L66.0843 469.862C66.8134 470.289 67.6473 470.516 68.5002 470.516C69.3557 470.516 70.195 470.289 70.9268 469.859L151.086 422.783L70.9053 375.962C70.2838 375.604 69.544 375.415 68.8015 375.415Z" fill="#B0ABAC"/>
<path opacity="0.6" fill-rule="evenodd" clip-rule="evenodd" d="M687.487 393.292L767.597 439.979C768.953 440.77 770.845 440.763 772.2 439.967L922.909 351.447L841.363 302.863L687.487 393.292Z" fill="white"/>
<path opacity="0.1" fill-rule="evenodd" clip-rule="evenodd" d="M1347.56 57.6748L1427.67 104.362C1429.02 105.153 1430.91 105.147 1432.27 104.35L1445.52 97.0141L1445.52 64.2391L1445.52 0L1347.56 57.6748Z" fill="#B0ABAC"/>
<path opacity="0.8" fill-rule="evenodd" clip-rule="evenodd" d="M1117.18 306.766L1197.29 353.453C1198.65 354.244 1200.54 354.238 1201.89 353.442L1352.6 264.921L1271.06 216.337L1117.18 306.766Z" fill="white"/>
<path opacity="0.13" fill-rule="evenodd" clip-rule="evenodd" d="M1125.02 602.931L1205.08 556.17C1206.44 555.38 1207.38 553.719 1207.38 552.131L1207.42 375.664L1125.02 422.732V602.931Z" fill="#B0ABAC"/>
<path opacity="0.1" fill-rule="evenodd" clip-rule="evenodd" d="M1345.79 91.6914C1345.79 89.9374 1344.86 88.3064 1343.37 87.4307L1263.69 40.6396V134.572C1263.69 136.148 1264.52 137.621 1265.87 138.411L1345.79 185.088V91.6914Z" fill="#B0ABAC"/>
<path opacity="0.14" fill-rule="evenodd" clip-rule="evenodd" d="M1202.57 124.659C1201.81 124.659 1201.06 124.864 1200.41 125.25L1190.6 130.704L1119.77 172.074L1199.85 219.106C1200.58 219.533 1201.42 219.76 1202.27 219.76C1203.13 219.76 1203.96 219.533 1204.7 219.103L1284.86 172.028L1204.67 125.206C1204.05 124.848 1203.31 124.659 1202.57 124.659Z" fill="#B0ABAC"/>
<path opacity="0.1" fill-rule="evenodd" clip-rule="evenodd" d="M1392.97 349.099L1445.52 314.641C1445.52 312.019 1445.52 313.606 1445.52 312.019L1445.56 135.552L1392.97 168.899V349.099Z" fill="#B0ABAC"/>
</svg>
