<svg width="541" height="192" viewBox="0 0 541 192" fill="none" xmlns="http://www.w3.org/2000/svg">
<path opacity="0.08" fill-rule="evenodd" clip-rule="evenodd" d="M100.984 47.3021C100.984 46.3197 100.462 45.4063 99.6277 44.9159L55 18.71V71.318C55 72.2007 55.4686 73.0253 56.2235 73.4682L100.984 99.6097V47.3021Z" fill="#B0ABAC"/>
<path opacity="0.2" fill-rule="evenodd" clip-rule="evenodd" d="M516.759 -2.04988C516.759 -2.9415 516.282 -3.77053 515.519 -4.21564L474.717 -28V19.7468C474.717 20.548 475.145 21.2963 475.835 21.6983L516.759 45.4242V-2.04988Z" fill="#B0ABAC"/>
<path opacity="0.2" fill-rule="evenodd" clip-rule="evenodd" d="M344.16 80.3207C344.16 79.3383 343.638 78.4249 342.803 77.9344L298.176 51.7285V104.337C298.176 105.219 298.644 106.044 299.399 106.487L344.16 132.628V80.3207Z" fill="#B0ABAC"/>
<path opacity="0.15" fill-rule="evenodd" clip-rule="evenodd" d="M236.175 44.999C235.748 44.999 235.329 45.114 234.962 45.3301L229.47 48.3845L189.801 71.5543L234.653 97.8951C235.061 98.1342 235.528 98.2614 236.006 98.2614C236.485 98.2614 236.955 98.1342 237.365 97.8936L282.259 71.5283L237.353 45.3055C237.005 45.1048 236.591 44.999 236.175 44.999Z" fill="#B0ABAC"/>
<path opacity="0.15" fill-rule="evenodd" clip-rule="evenodd" d="M344.374 -24.2129C343.948 -24.2129 343.529 -24.098 343.161 -23.8819L337.669 -20.8274L298 2.34243L342.852 28.6832C343.26 28.9223 343.728 29.0495 344.205 29.0495C344.684 29.0495 345.154 28.9223 345.564 28.6817L390.459 2.31638L345.552 -23.9064C345.204 -24.1071 344.79 -24.2129 344.374 -24.2129Z" fill="#B0ABAC"/>
<path opacity="0.8" fill-rule="evenodd" clip-rule="evenodd" d="M28.0876 94.7871C27.8293 94.7871 27.5756 94.8583 27.353 94.9922L24.0266 96.8847L0 111.24L27.1659 127.56C27.4132 127.708 27.6961 127.787 27.9854 127.787C28.2756 127.787 28.5603 127.708 28.8086 127.559L56 111.224L28.8013 94.977C28.5904 94.8526 28.3395 94.7871 28.0876 94.7871Z" fill="white"/>
<path opacity="0.1" fill-rule="evenodd" clip-rule="evenodd" d="M203.291 0.899832C203.172 0.724094 203.007 0.584096 202.814 0.493935L200.001 -0.902241L179.216 -10.6725L180.654 15.2925C180.667 15.5287 180.744 15.7573 180.877 15.9541C181.011 16.1516 181.195 16.3092 181.41 16.4098L204.993 27.4263L203.49 1.47248C203.478 1.27202 203.407 1.07123 203.291 0.899832Z" fill="#B0ABAC"/>
<path opacity="0.1" fill-rule="evenodd" clip-rule="evenodd" d="M127.41 191.465L172.253 165.276C173.013 164.834 173.542 163.903 173.542 163.014L173.564 64.1816L127.41 90.5423V191.465Z" fill="#B0ABAC"/>
<path opacity="0.2" fill-rule="evenodd" clip-rule="evenodd" d="M515.395 65.7646C514.969 65.7646 514.55 65.8796 514.183 66.0957L508.691 69.1502L469.021 92.32L513.874 118.661C514.282 118.9 514.749 119.027 515.227 119.027C515.706 119.027 516.176 118.9 516.586 118.659L561.48 92.2939L516.574 66.0712C516.226 65.8704 515.811 65.7646 515.395 65.7646Z" fill="#B0ABAC"/>
<path opacity="0.8" fill-rule="evenodd" clip-rule="evenodd" d="M365.988 74.053L410.854 100.201C411.614 100.644 412.674 100.64 413.433 100.194L497.839 50.6171L452.168 23.4072L365.988 74.053Z" fill="white"/>
</svg>
