<svg width="148" height="56" viewBox="0 0 148 56" fill="none" xmlns="http://www.w3.org/2000/svg">
<path fill-rule="evenodd" clip-rule="evenodd" d="M53.8972 39.1107C56.094 39.1107 57.4126 37.4991 57.4126 35.2109C57.4126 32.9238 56.094 31.2853 53.8972 31.2853C51.7005 31.2853 50.3046 32.8974 50.3046 35.2109C50.3046 37.525 51.7005 39.1107 53.8972 39.1107ZM47.0996 41.6841V22.3428H50.1749V30.7397C51.0021 29.2839 52.7602 28.4261 54.7243 28.4261C58.3427 28.4261 60.6433 31.2853 60.5914 35.3414C60.5141 39.2924 58.162 42.0227 54.5174 42.0227C52.6053 42.0227 50.8986 41.1643 50.124 39.6827L49.9428 41.6841H47.0996ZM63.1762 36.8749V28.842H66.3288V35.7572C66.3288 38.4088 67.4405 39.1885 69.0433 39.1885C71.1108 39.1885 71.9899 37.8891 71.9899 35.575V28.842H75.1429V41.6843H72.1968L71.9899 40.0204C71.24 41.2168 69.5858 42.0223 67.8538 42.0223C64.8305 42.0223 63.1762 39.9427 63.1762 36.8749ZM77.6753 45.0121H79.5626C81.0095 45.0121 81.604 44.908 82.2242 43.1924L82.5088 42.4122L77.0551 28.8421H80.467L83.9818 38.3049L87.3938 28.8421H90.728L84.7575 44.6217C83.181 48.7037 79.4072 48.0535 77.6238 47.6119L77.6753 45.0121ZM99.671 39.1107C101.868 39.1107 103.186 37.4991 103.186 35.2109C103.186 32.9238 101.868 31.2853 99.671 31.2853C97.4743 31.2853 96.0779 32.8974 96.0779 35.2109C96.0779 37.525 97.4743 39.1107 99.671 39.1107ZM92.8734 41.6841V22.3428H95.9488V30.7397C96.7759 29.2839 98.5336 28.4261 100.498 28.4261C104.116 28.4261 106.417 31.2853 106.365 35.3414C106.287 39.2924 103.935 42.0227 100.291 42.0227C98.3786 42.0227 96.6724 41.1643 95.8973 39.6827L95.7166 41.6841H92.8734ZM116.678 36.485V35.8089L114.015 36.0429C112.154 36.2251 111.483 36.849 111.483 37.889C111.483 39.0067 112.258 39.6305 113.679 39.6305C115.024 39.6305 116.678 38.8767 116.678 36.485ZM108.278 38.0189C108.278 35.5232 110.138 34.1715 113.008 33.9375L116.652 33.6512V33.3654C116.652 31.598 115.567 30.9219 114.015 30.9219C112.283 30.9219 111.276 31.7275 111.302 33.0533H108.614C108.587 30.2976 110.862 28.4521 114.171 28.4521C117.763 28.4521 119.727 30.4793 119.727 33.8852V41.6842H116.962L116.729 39.7863C116.187 41.1121 114.662 42.0227 112.646 42.0227C109.906 42.0227 108.278 40.4106 108.278 38.0189ZM124.767 37.8369C124.767 38.9546 125.569 39.6043 126.965 39.6043C128.128 39.6043 129.084 39.1368 129.084 38.1226C129.084 37.3948 128.567 37.0049 127.74 36.7709L125.517 36.1989C123.062 35.5492 122.105 34.1711 122.105 32.5073C122.105 30.0638 124.147 28.4522 126.887 28.4522C129.653 28.4522 131.54 30.0638 131.643 32.6113H128.774C128.774 31.4936 127.999 30.8175 126.81 30.8175C125.672 30.8175 124.974 31.4419 124.974 32.3256C124.974 33.1575 125.621 33.4955 126.576 33.7554L128.826 34.3011C130.919 34.8213 132.056 36.069 132.056 37.915C132.056 40.4108 130.015 42.0224 127.016 42.0224C123.966 42.0224 122.002 40.3844 121.899 37.8369H124.767ZM142.86 34.1452C142.834 32.1433 141.619 31.0779 139.914 31.0779C138.182 31.0779 136.967 32.1956 136.941 34.1452H142.86ZM140.017 28.4522C143.739 28.4522 145.987 31.1297 145.987 35.2111V36.173H136.889C136.967 38.2267 138.156 39.3449 140.069 39.3449C141.594 39.3449 142.808 38.5647 143.119 37.4465H146.039C145.496 40.1768 143.093 42.0224 140.017 42.0224C136.321 42.0224 133.839 39.3449 133.839 35.2634C133.839 31.1297 136.347 28.4522 140.017 28.4522Z" fill="#01172F"/>
<path fill-rule="evenodd" clip-rule="evenodd" d="M35.0068 24.6826C35.0068 24.3635 34.8355 24.0667 34.5613 23.9074L19.9004 15.3945V32.4841C19.9004 32.7708 20.0543 33.0387 20.3023 33.1825L35.0068 41.6745V24.6826Z" fill="#FF8E2F"/>
<path fill-rule="evenodd" clip-rule="evenodd" d="M17.7873 36.8193C17.6472 36.8193 17.5096 36.8567 17.3889 36.9269L15.5847 37.9191L2.55273 45.4457L17.2874 54.0025C17.4215 54.0801 17.575 54.1214 17.7319 54.1214C17.8893 54.1214 18.0437 54.0801 18.1784 54.002L32.9269 45.4373L18.1744 36.9189C18.0601 36.8537 17.9239 36.8193 17.7873 36.8193Z" fill="#FF3159"/>
<path fill-rule="evenodd" clip-rule="evenodd" d="M0.457031 41.6915L15.1887 33.184C15.4382 33.0402 15.6119 32.738 15.6119 32.4492L15.6194 0.34375L0.457031 8.90693V41.6915Z" fill="#01AAF3"/>
</svg>
